<?xml version="1.0" encoding="utf-8"?>
<!-- Generator: Adobe Illustrator 25.2.0, SVG Export Plug-In . SVG Version: 6.00 Build 0)  -->
<svg version="1.1" id="Layer_1" xmlns="http://www.w3.org/2000/svg" xmlns:xlink="http://www.w3.org/1999/xlink" x="0px" y="0px"
	 viewBox="0 0 488.95 122.83" style="enable-background:new 0 0 488.95 122.83;" xml:space="preserve">
<g id="XMLID_117_">
	<path id="XMLID_172_" d="M27.83,77.93c0-4.45,2.6-7.51,6.22-7.51c2.87,0,5.38,2.32,5.38,5.38c0,2.04-1.2,3.8-2.78,4.46
		c0.56,2.32,3.62,5.1,9.19,5.1c2.87,0,5.47-0.83,7.33-2.69c2.23-2.32,3.25-6.03,3.25-11.23V38.41h-9.37v-7.51h24.68v7.51h-7.05
		v33.12c0,7.14-1.86,12.99-5.38,16.52c-3.43,3.34-7.98,5.01-13.45,5.01C35.9,93.05,27.83,86.47,27.83,77.93"/>
	<polygon id="XMLID_171_" points="102.8,84.43 110.78,84.43 110.78,38.41 102.8,38.41 102.8,30.89 127.01,30.89 127.01,38.41 
		119.13,38.41 119.13,84.43 127.01,84.43 127.01,91.94 102.8,91.94 	"/>
	<path id="XMLID_167_" d="M184.91,84.61c8.26,0,13.27-3.9,13.27-10.11c0-6.68-5.38-10.2-14.47-10.2h-8.72v20.32H184.91z
		 M183.15,57.52c8.72,0,13.27-3.99,13.27-10.02c0-5.85-4.64-9.28-12.99-9.28h-8.44v19.3H183.15z M159.21,84.43h7.42V38.41h-7.42
		v-7.51h24.4c14.75,0,21.34,7.14,21.34,15.68c0,7.24-4.55,11.97-10.86,14.01c7.89,2.23,12.62,6.77,12.62,14.47
		c0,9.83-7.98,16.89-21.99,16.89h-25.52V84.43z"/>
	<path id="XMLID_163_" d="M262.94,84.61c8.26,0,13.27-3.9,13.27-10.11c0-6.68-5.38-10.2-14.47-10.2h-8.72v20.32H262.94z
		 M261.18,57.52c8.72,0,13.27-3.99,13.27-10.02c0-5.85-4.64-9.28-12.99-9.28h-8.44v19.3H261.18z M237.24,84.43h7.42V38.41h-7.42
		v-7.51h24.4c14.75,0,21.34,7.14,21.34,15.68c0,7.24-4.55,11.97-10.86,14.01c7.89,2.23,12.62,6.77,12.62,14.47
		c0,9.83-7.98,16.89-21.99,16.89h-25.52V84.43z"/>
	<path id="XMLID_119_" d="M363.98,61.42c0-13.64-9.37-23.84-22.36-23.84c-13.08,0-22.45,10.11-22.45,23.84
		c0,13.64,9.37,23.85,22.45,23.85C354.61,85.26,363.98,75.15,363.98,61.42 M310.54,61.42c0-17.91,12.99-31.64,31.27-31.64
		c18,0,30.8,13.82,30.8,31.64c0,17.91-12.99,31.64-31.27,31.64C323.34,93.05,310.54,79.23,310.54,61.42"/>
	<polygon id="XMLID_118_" points="413.71,45.83 413.71,84.42 421.5,84.42 421.5,91.94 398.12,91.94 398.12,84.42 405.55,84.42 
		405.55,38.41 398.12,38.41 398.12,30.89 412.78,30.89 445.81,73.94 445.81,38.41 438.02,38.41 438.02,30.89 461.12,30.89 
		461.12,38.41 453.98,38.41 453.98,92.13 449.34,92.22 	"/>
</g>
</svg>
